# xmcd CD database file
#
# Track frame offsets:
#	150
#	23296
#	53005
#	89270
#	124777
#	194829
#	220606
#	243050
#	267594
#
# Disc length: 3850 seconds
#
# Revision: 0
# Processed by: cddbd v1.5.2PL0 Copyright (c) Steve Scherf et al.
# Submitted via: CDex 1.51
#
DISCID=730f0809
DTITLE=LA BigBand - The controversy of independence
DYEAR=2009
DGENRE=Jazz
TTITLE0=Pumpin
TTITLE1=Would you like to dance
TTITLE2=Deep
TTITLE3=Love shoudn t cost a mind
TTITLE4=Controversy
TTITLE5=His masters noise
TTITLE6=I don t waste my blues
TTITLE7=In the end it s yellow
TTITLE8=Pumpin remix
EXTD=YEAR: 2009
EXTT0=
EXTT1=
EXTT2=
EXTT3=
EXTT4=
EXTT5=
EXTT6=
EXTT7=
EXTT8=
PLAYORDER=
